<?xml version="1.0" encoding="UTF-8" standalone="no"?>
<!-- Created with Inkscape (http://www.inkscape.org/) -->

<svg
   width="100mm"
   height="100mm"
   viewBox="0 0 100 100"
   version="1.1"
   id="svg1"
   xmlns="http://www.w3.org/2000/svg"
   xmlns:svg="http://www.w3.org/2000/svg">
  <defs
     id="defs1" />
  <g
     id="layer1">
    <polygon
       points="913.65826,919.45331 917.04435,900.24982 931.98202,912.78401 "
       fill="#cc7e85"
       fill-opacity="1"
       id="polygon3571"
       transform="matrix(2.1517218,0,0,2.1517218,-1962.7716,-1915.9355)" />
    <polygon
       points="919.27113,897.59605 937.59489,890.92674 934.2088,910.13023 "
       fill="#cc7e85"
       fill-opacity="1"
       id="polygon3572"
       transform="matrix(2.1517218,0,0,2.1517218,-1962.7716,-1915.9355)" />
    <polygon
       points="914.41849,922.63377 933.44401,915.70905 929.92823,935.64799 "
       fill="#cc7e85"
       fill-opacity="1"
       id="polygon3618"
       transform="matrix(2.1517218,0,0,2.1517218,-1962.7716,-1915.9355)" />
    <polygon
       points="937.50643,910.86765 940.94586,891.36166 956.11882,904.09329 "
       fill="#cc7e85"
       fill-opacity="1"
       id="polygon3619"
       transform="matrix(2.1517218,0,0,2.1517218,-1962.7716,-1915.9355)" />
    <polygon
       points="932.71867,936.40896 936.32642,915.94836 952.24194,929.30307 "
       fill="#cc7e85"
       fill-opacity="1"
       id="polygon3660"
       transform="matrix(2.1517218,0,0,2.1517218,-1962.7716,-1915.9355)" />
    <polygon
       points="938.07947,913.85915 957.60275,906.75326 953.99499,927.21386 "
       fill="#cc7e85"
       fill-opacity="1"
       id="polygon3661"
       transform="matrix(2.1517218,0,0,2.1517218,-1962.7716,-1915.9355)" />
  </g>
</svg>
